<?xml version="1.0" standalone="no"?>
<!DOCTYPE svg PUBLIC "-//W3C//DTD SVG 20010904//EN"
 "http://www.w3.org/TR/2001/REC-SVG-20010904/DTD/svg10.dtd">
<svg version="1.0" xmlns="http://www.w3.org/2000/svg"
 width="200.000000pt" height="62.000000pt" viewBox="0 0 200.000000 62.000000"
 preserveAspectRatio="xMidYMid meet">

<g transform="translate(0.000000,62.000000) scale(0.100000,-0.100000)"
fill="#000000" stroke="none">
<path d="M0 310 l0 -310 1000 0 1000 0 0 310 0 310 -1000 0 -1000 0 0 -310z
m1166 274 c31 -21 49 -56 59 -111 l7 -43 -51 0 c-47 0 -51 2 -51 24 0 39 -11
56 -35 56 -24 0 -35 -17 -35 -52 0 -12 33 -54 79 -102 44 -44 84 -94 90 -109
17 -45 13 -118 -9 -154 -74 -123 -250 -74 -250 69 l0 38 44 0 c41 0 44 -2 50
-32 12 -60 44 -76 72 -33 23 36 11 61 -77 145 -61 59 -80 84 -89 119 -19 74 7
158 58 185 36 20 107 20 138 0z m-735 -15 c30 -15 46 -33 62 -67 19 -41 22
-65 22 -192 0 -130 -2 -150 -22 -190 -31 -63 -69 -83 -170 -88 l-83 -5 0 282
0 281 75 0 c57 0 86 -5 116 -21z m237 -256 l-3 -278 -52 -3 -53 -3 0 280 0
281 55 0 55 0 -2 -277z m282 232 l0 -45 -65 0 -65 0 0 -64 0 -65 48 -3 47 -3
3 -47 3 -48 -50 0 -51 0 0 -75 0 -75 71 0 70 0 -3 -42 -3 -43 -120 0 -120 0
-3 278 -2 277 120 0 120 0 0 -45z m558 3 l-3 -43 -62 -3 -63 -3 0 -67 0 -67
45 3 45 4 0 -51 0 -51 -45 0 -45 0 0 -75 0 -75 65 0 65 0 0 -45 0 -45 -120 0
-120 0 0 280 0 280 121 0 120 0 -3 -42z m152 -193 l0 -235 50 0 50 0 0 -45 0
-45 -105 0 -105 0 0 280 0 280 55 0 55 0 0 -235z m95 205 c0 -18 -6 -26 -23
-28 -24 -4 -38 18 -28 44 3 9 15 14 28 12 17 -2 23 -10 23 -28z"/>
<path d="M347 313 c2 -174 4 -188 20 -185 10 2 21 9 25 15 23 37 20 316 -4
344 -6 7 -18 13 -27 13 -14 0 -16 -20 -14 -187z"/>
<path d="M1730 550 c-9 -6 -10 -10 -3 -10 6 0 15 5 18 10 8 12 4 12 -15 0z"/>
</g>
</svg>
